<svg width="800" height="800" xmlns="http://www.w3.org/2000/svg">
 <g>
  <path stroke="null" fill="#ffffff" id="svg_2" d="m399.999977,766.495136c202.444927,0 366.495127,-164.0502 366.495127,-366.495127s-164.0502,-366.495127 -366.495127,-366.495127s-366.495127,164.0502 -366.495127,366.495127s164.0502,366.495127 366.495127,366.495127zm0,-663.181658c164.0502,0 296.686531,132.636332 296.686531,296.686531s-132.636332,296.686531 -296.686531,296.686531s-296.686531,-132.636332 -296.686531,-296.686531s132.636332,-296.686531 296.686531,-296.686531z"/>
  <path fill="#ffffff" stroke="null" id="svg_3" d="m400.000017,582.201014c100.197738,0 182.201001,-82.003263 182.201001,-182.201001s-82.003263,-182.201001 -182.201001,-182.201001s-182.201001,82.003263 -182.201001,182.201001s81.917843,182.201001 182.201001,182.201001zm0,-309.73316c70.129874,0 127.532159,57.402284 127.532159,127.532159s-57.402284,127.532159 -127.532159,127.532159s-127.617579,-57.402284 -127.617579,-127.532159s57.402284,-127.532159 127.617579,-127.532159z"/>
 </g>
</svg>