<svg width="80" height="80"
  xmlns="http://www.w3.org/2000/svg">

  <g>
    <polygon fill="#616161" stroke="null" id="svg_1" points="70.93437194824219,61.90194762179635 9.065622329711914,61.90194762179635 9.065622329711914,27.20777577703393 39.999996185302734,27.20777577703393 39.999996185302734,25.258656809474815 5.589851379394531,25.258656809474815 5.589851379394531,63.85106309348521 74.41014862060547,63.85106309348521 74.41014862060547,42.215982038802395 70.93437194824219,42.215982038802395 "/>
    <path fill="#616161" stroke="null" id="svg_2" d="m36.738713,44.029301l-1.518418,9.682976l9.472036,-1.552233l0.939973,-1.034822l0,0l28.777637,-29.344591l-7.953618,-8.056827l-28.705331,29.344591l-1.012279,0.960906zm1.952252,1.552233l4.410643,4.582783l-5.350616,0.88699l0.939973,-5.469773zm32.609834,-23.800903l-2.819919,2.956634l-4.772171,-4.952362l2.892225,-2.882718l4.699865,4.878446zm-9.182814,-0.443495l4.844477,4.952362l-22.12552,22.544333l-4.772171,-4.952362l22.053214,-22.544333z"/>
  </g>
</svg>